<mxfile host="app.diagrams.net" modified="2020-10-29T03:52:12.370Z" agent="5.0 (Macintosh; Intel Mac OS X 10_15_7) AppleWebKit/537.36 (KHTML, like Gecko) Chrome/86.0.4240.111 Safari/537.36" etag="ACLWZzkcjKE1pOBDKyq2" version="13.8.3" type="github">
  <diagram id="JB7IW-WH3_webFm1OCUp" name="Page-1">
    <mxGraphModel dx="1259" dy="786" grid="1" gridSize="10" guides="1" tooltips="1" connect="1" arrows="1" fold="1" page="1" pageScale="1" pageWidth="827" pageHeight="1169" math="0" shadow="0">
      <root>
        <mxCell id="0" />
        <mxCell id="1" parent="0" />
        <mxCell id="WyvdNpah7RGctYs9x6Oc-4" value="Sink Strategy" style="rounded=0;whiteSpace=wrap;html=1;fillColor=#f9f7ed;strokeColor=#36393d;" vertex="1" parent="1">
          <mxGeometry x="610" y="272.5" width="130" height="37.5" as="geometry" />
        </mxCell>
        <mxCell id="WyvdNpah7RGctYs9x6Oc-5" value="实时统计" style="rounded=0;whiteSpace=wrap;html=1;fillColor=#dae8fc;strokeColor=#6c8ebf;" vertex="1" parent="1">
          <mxGeometry x="800" y="225" width="104" height="35" as="geometry" />
        </mxCell>
        <mxCell id="WyvdNpah7RGctYs9x6Oc-6" value="数据清洗(transform)" style="rounded=0;whiteSpace=wrap;html=1;" vertex="1" parent="1">
          <mxGeometry x="380" y="200" width="180" height="60" as="geometry" />
        </mxCell>
        <mxCell id="WyvdNpah7RGctYs9x6Oc-7" value="数据写入(sink)" style="rounded=0;whiteSpace=wrap;html=1;" vertex="1" parent="1">
          <mxGeometry x="380" y="320" width="180" height="60" as="geometry" />
        </mxCell>
        <mxCell id="WyvdNpah7RGctYs9x6Oc-8" value="" style="shape=flexArrow;endArrow=classic;html=1;width=36;endSize=7;fillColor=#f5f5f5;strokeColor=#666666;" edge="1" parent="1">
          <mxGeometry width="50" height="50" relative="1" as="geometry">
            <mxPoint x="469.5" y="270" as="sourcePoint" />
            <mxPoint x="469.5" y="310" as="targetPoint" />
          </mxGeometry>
        </mxCell>
        <mxCell id="WyvdNpah7RGctYs9x6Oc-9" value="" style="shape=curlyBracket;whiteSpace=wrap;html=1;rounded=1;rotation=-180;" vertex="1" parent="1">
          <mxGeometry x="580" y="200" width="20" height="180" as="geometry" />
        </mxCell>
        <mxCell id="WyvdNpah7RGctYs9x6Oc-10" value="" style="shape=curlyBracket;whiteSpace=wrap;html=1;rounded=1;rotation=0;" vertex="1" parent="1">
          <mxGeometry x="740" y="235" width="40" height="110" as="geometry" />
        </mxCell>
        <mxCell id="WyvdNpah7RGctYs9x6Oc-11" value="离线回流" style="rounded=0;whiteSpace=wrap;html=1;" vertex="1" parent="1">
          <mxGeometry x="800" y="272.5" width="104" height="35" as="geometry" />
        </mxCell>
        <mxCell id="WyvdNpah7RGctYs9x6Oc-12" value="&lt;b&gt;&lt;font style=&quot;font-size: 14px&quot;&gt;.....&lt;/font&gt;&lt;/b&gt;" style="text;html=1;strokeColor=none;fillColor=none;align=center;verticalAlign=middle;whiteSpace=wrap;rounded=0;" vertex="1" parent="1">
          <mxGeometry x="827" y="330" width="40" height="20" as="geometry" />
        </mxCell>
      </root>
    </mxGraphModel>
  </diagram>
</mxfile>
